#!OML:ASF F:\VICON\USERDATA\INSTALL\rory3\rory3.ASF
:FULLY-SPECIFIED
:DEGREES
340
root 0.83566 17.7941 35.8698 -3.28839 -4.12186 -3.63063
lowerback 9.16936 1.95905 3.13793
upperback 0.64537 2.98448 1.23111
thorax -4.37419 1.42673 -0.861888
lowerneck -15.2534 -3.29992 -1.39275
upperneck 21.1155 -4.55785 1.31433
head 9.22133 -2.09647 0.11833
rclavicle -4.51094e-014 -2.83268e-015
rhumerus -26.506 -17.3334 -81.336
rradius 30.6562
rwrist 2.98385
rhand -18.4771 23.0354
rfingers 7.12502
rthumb 7.80983 -6.80039
lclavicle -4.51094e-014 -2.83268e-015
lhumerus -36.2829 13.898 78.5954
lradius 16.5734
lwrist 2.41933
lhand -42.4087 3.05388
lfingers 7.12502
lthumb -15.2888 32.4688
rfemur 4.47998 3.49946 27.3233
rtibia 50.3141
rfoot 6.59832 -0.783613
rtoes -0.474047
lfemur -19.2068 -1.54497 -16.483
ltibia 24.2028
lfoot -3.31207 -4.56173
ltoes 0.875216
341
root 0.864489 17.818 36.0512 -3.33428 -4.36618 -3.02534
lowerback 9.30386 1.98838 2.58938
upperback 0.601541 2.96737 1.10521
thorax -4.51652 1.42523 -0.690453
lowerneck -15.6308 -3.30003 -1.62036
upperneck 21.4511 -4.54611 1.48959
head 9.41847 -2.08386 0.208065
rclavicle 3.74973e-014 1.33683e-014
rhumerus -26.7471 -17.1547 -81.2354
rradius 30.2255
rwrist 2.59732
rhand -18.295 22.8727
rfingers 7.12502
rthumb 7.98559 -6.95648
lclavicle 3.74973e-014 1.33683e-014
lhumerus -36.2393 13.123 79.1892
lradius 16.9669
lwrist 3.95786
lhand -37.2518 29.2902
lfingers 7.12502
lthumb -10.3175 59.0171
rfemur 3.04026 3.19639 26.2635
rtibia 52.7452
rfoot 10.0914 -0.543687
rtoes 4.02385
lfemur -18.606 -1.46134 -17.3397
ltibia 24.5488
lfoot -3.70258 -4.85716
ltoes 3.49879
342
root 0.892666 17.8438 36.2341 -3.32325 -4.5706 -2.52778
lowerback 9.28976 1.99589 2.10429
upperback 0.613352 2.92153 1.01134
thorax -4.5166 1.41155 -0.51005
lowerneck -15.8787 -3.26157 -1.61411
upperneck 21.5934 -4.46263 1.35766
head 9.50942 -2.05632 0.167019
rclavicle 1.0871e-016 1.89839e-014
rhumerus -27.011 -16.8598 -81.2631
rradius 30.1108
rwrist 1.99126
rhand -18.2153 23.2314
rfingers 7.12502
rthumb 8.06253 -6.59479
lclavicle 1.0871e-016 1.89839e-014
lhumerus -36.1366 12.904 79.3274
lradius 17.3797
lwrist 3.85814
lhand -32.9017 40.9949
lfingers 7.12502
lthumb -6.11931 70.8865
rfemur 1.40853 3.00348 25.3913
rtibia 55.2506
rfoot 13.3255 -1.11511
rtoes 9.62147
lfemur -17.9515 -1.60363 -18.0703
ltibia 24.636
lfoot -3.90685 -4.54558
ltoes 3.28694
343
root 0.916096 17.8635 36.4129 -3.51047 -4.89924 -2.15487
lowerback 9.50065 1.99802 1.76085
upperback 0.633091 2.88884 0.919274
thorax -4.62667 1.40003 -0.417248
lowerneck -15.5351 -3.14388 -1.4896
upperneck 21.2182 -4.29847 1.24022
head 9.30583 -1.98899 0.13583
rclavicle -2.18989e-014 -2.98177e-016
rhumerus -27.2329 -16.4982 -81.3895
rradius 29.93
rwrist 1.50972
rhand -18.0512 23.0455
rfingers 7.12502
rthumb 8.22092 -6.7746
lclavicle -2.18989e-014 -2.98177e-016
lhumerus -36.1019 12.6312 79.3271
lradius 17.9125
lwrist 3.3236
lhand -31.103 38.0189
lfingers 7.12502
lthumb -4.38263 67.9535
rfemur -0.034773 2.9064 24.7125
rtibia 57.7241
rfoot 15.9173 -1.56335
rtoes 13.3112
lfemur -17.0377 -1.60475 -18.6555
ltibia 24.5573
lfoot -4.03879 -3.96187
ltoes 2.16468
344
root 0.93614 17.8803 36.5843 -3.61325 -5.187 -1.6256
lowerback 9.67396 2.01807 1.23607
upperback 0.682863 2.85455 0.773938
thorax -4.69015 1.3918 -0.275621
lowerneck -15.5679 -3.01229 -1.36655
upperneck 21.0029 -4.13544 1.21432
head 9.23118 -1.90746 0.12831
rclavicle -4.03937e-014 -2.88238e-015
rhumerus -27.0299 -16.4135 -81.5078
rradius 29.2969
rwrist 1.63188
rhand -18.1074 23.0344
rfingers 7.12502
rthumb 8.16667 -6.78782
lclavicle -4.03937e-014 -2.88238e-015
lhumerus -35.752 11.525 79.8805
lradius 18.244
lwrist 4.24728
lhand -32.2772 16.8257
lfingers 7.12502
lthumb -5.51641 46.7339
rfemur -1.61224 2.77498 23.9007
rtibia 60.1116
rfoot 17.296 -1.85843
rtoes 13.8905
lfemur -16.2852 -1.64469 -19.4119
ltibia 24.477
lfoot -3.96112 -3.40029
ltoes 2.59872
